<?xml version="1.0" encoding="utf-8"?>
<!-- Generator: Adobe Illustrator 24.3.0, SVG Export Plug-In . SVG Version: 6.00 Build 0)  -->
<svg version="1.1" id="Layer_1" xmlns="http://www.w3.org/2000/svg" xmlns:xlink="http://www.w3.org/1999/xlink" x="0px" y="0px"
	 viewBox="0 0 350 350" enable-background="new 0 0 350 350" xml:space="preserve">
<g>
	<path fill="#2AA9E1" d="M305.67,309.368V255.5V40.631c0-3.216-2.61-5.824-5.825-5.824H50.155c-3.22,0-5.825,2.608-5.825,5.824
		v241.802c0,18.062,14.697,32.76,32.759,32.76h222.756C303.059,315.193,305.67,312.585,305.67,309.368z M294.02,276.609H98.201
		c-3.219,0-5.825,2.61-5.825,5.824c0,3.219,2.606,5.823,5.825,5.823H294.02v15.288H77.089c-11.641,0-21.111-9.47-21.111-21.111
		c0-11.638,9.471-21.111,21.111-21.111H294.02V276.609z M294.02,249.675H77.089c-8.042,0-15.407,2.926-21.111,7.752V46.457H294.02
		V249.675z"/>
	<path fill="#2AA9E1" d="M89.341,146.304h171.315c3.212,0,5.823-2.605,5.823-5.822V77.877c0-3.216-2.611-5.824-5.823-5.824H89.341
		c-3.214,0-5.825,2.608-5.825,5.824v62.604C83.517,143.699,86.128,146.304,89.341,146.304z M95.166,83.7h159.666v50.958H95.166V83.7
		z"/>
</g>
</svg>
